<svg width="640" height="640" viewBox="0 0 640 640" fill="none" xmlns="http://www.w3.org/2000/svg">
  <defs>
    <linearGradient id="bg" x1="104" y1="88" x2="546" y2="560" gradientUnits="userSpaceOnUse">
      <stop stop-color="#FFF6EA"/>
      <stop offset="1" stop-color="#E8F6F1"/>
    </linearGradient>
    <linearGradient id="mark" x1="190" y1="170" x2="456" y2="468" gradientUnits="userSpaceOnUse">
      <stop stop-color="#12A085"/>
      <stop offset="1" stop-color="#0C5D58"/>
    </linearGradient>
    <linearGradient id="accent" x1="220" y1="204" x2="410" y2="402" gradientUnits="userSpaceOnUse">
      <stop stop-color="#E3A447"/>
      <stop offset="1" stop-color="#C07A24"/>
    </linearGradient>
    <filter id="shadow" x="70" y="74" width="500" height="500" filterUnits="userSpaceOnUse" color-interpolation-filters="sRGB">
      <feFlood flood-opacity="0" result="BackgroundImageFix"/>
      <feColorMatrix in="SourceAlpha" type="matrix" values="0 0 0 0 0 0 0 0 0 0 0 0 0 0 0 0 0 0 127 0" result="hardAlpha"/>
      <feOffset dy="20"/>
      <feGaussianBlur stdDeviation="20"/>
      <feColorMatrix type="matrix" values="0 0 0 0 0.07 0 0 0 0 0.13 0 0 0 0 0.12 0 0 0 0.16 0"/>
      <feBlend mode="normal" in2="BackgroundImageFix" result="effect1_dropShadow_1_1"/>
      <feBlend mode="normal" in="SourceGraphic" in2="effect1_dropShadow_1_1" result="shape"/>
    </filter>
  </defs>
  <rect width="640" height="640" rx="168" fill="#F3EDE2"/>
  <rect x="88" y="92" width="464" height="464" rx="132" fill="url(#bg)"/>
  <g filter="url(#shadow)">
    <path d="M320 148C226.149 148 150 224.149 150 318C150 411.851 226.149 488 320 488C413.851 488 490 411.851 490 318C490 224.149 413.851 148 320 148ZM222 260C222 240.118 238.118 224 258 224H364C383.882 224 400 240.118 400 260C400 279.882 383.882 296 364 296H290C278.954 296 270 304.954 270 316C270 327.046 278.954 336 290 336H348C376.719 336 400 359.281 400 388C400 416.719 376.719 440 348 440H250C230.118 440 214 423.882 214 404C214 384.118 230.118 368 250 368H342C353.046 368 362 359.046 362 348C362 336.954 353.046 328 342 328H282C248.863 328 222 301.137 222 268V260Z" fill="url(#mark)"/>
    <path d="M420 214L442 236L326 352L272 298L294 276L326 308L420 214Z" fill="url(#accent)"/>
  </g>
  <circle cx="456" cy="178" r="20" fill="#E3A447"/>
  <circle cx="194" cy="458" r="12" fill="#0D7C6A" fill-opacity="0.18"/>
  <circle cx="476" cy="438" r="16" fill="#0D7C6A" fill-opacity="0.12"/>
</svg>
